<svg width="400" height="137" viewBox="0 0 400 137" fill="none" xmlns="http://www.w3.org/2000/svg">
<path d="M86.8913 68.5229V114.731H69.0731V73.2022C69.0731 70.3264 68.3672 67.7187 66.9553 65.3791C65.5435 62.9907 63.6449 61.1141 61.2594 59.7493C58.9226 58.3358 56.318 57.629 53.4456 57.629C50.5733 57.629 47.9444 58.3358 45.5589 59.7493C43.2221 61.1141 41.3478 62.9907 39.9359 65.3791C38.5728 67.7187 37.8912 70.3264 37.8912 73.2022V104.731C37.8912 110.253 33.4141 114.731 27.8912 114.731H20.073L20 20H27.8441C33.3568 20 37.8298 24.4613 37.8441 29.974L37.8912 48.1243C40.3741 45.4922 43.3438 43.4207 46.8003 41.9096C50.2569 40.3499 53.9812 39.57 57.9732 39.57C63.2797 39.57 68.1237 40.8861 72.5053 43.5181C76.8868 46.1015 80.3677 49.5866 82.9479 53.9734C85.5768 58.3114 86.8913 63.1613 86.8913 68.5229Z" fill="white"/>
<path d="M151.912 39.57C159.02 39.57 165.495 41.3004 171.337 44.7611C177.179 48.2218 181.828 52.8767 185.285 58.7257C188.741 64.5261 190.47 70.9601 190.47 78.0277C190.47 83.3406 189.472 88.3367 187.476 93.0159C185.48 97.6952 182.705 101.814 179.151 105.372C175.646 108.882 171.556 111.635 166.882 113.634C162.258 115.632 157.267 116.632 151.912 116.632C147.336 116.632 143.271 115.608 139.717 113.561C136.212 111.465 133.266 108.76 130.881 105.445V114.731H113.063V20H120.881C126.404 20 130.881 24.4772 130.881 30V50.7564C133.266 47.4419 136.212 44.7611 139.717 42.7139C143.271 40.618 147.336 39.57 151.912 39.57ZM151.693 99.3768C155.491 99.3768 158.923 98.4263 161.99 96.5254C165.106 94.5757 167.588 91.9923 169.438 88.7754C171.288 85.5584 172.213 81.9758 172.213 78.0277C172.213 74.1283 171.288 70.5701 169.438 67.3531C167.588 64.0874 165.106 61.5041 161.99 59.6031C158.874 57.7022 155.442 56.7517 151.693 56.7517C147.993 56.7517 144.683 57.7265 141.762 59.6762C138.841 61.5772 136.553 64.1605 134.897 67.4262C133.242 70.6432 132.415 74.177 132.415 78.0277C132.415 81.9758 133.242 85.5827 134.897 88.8485C136.553 92.0655 138.841 94.6244 141.762 96.5254C144.683 98.4263 147.993 99.3768 151.693 99.3768Z" fill="white"/>
<path d="M91.2241 50.5263C91.2241 45.6059 95.2128 41.6172 100.133 41.6172C105.054 41.6172 109.042 45.6059 109.042 50.5263V114.731H91.2241V50.5263ZM100.279 38.2784C97.6503 38.2784 95.4352 37.4254 93.6339 35.7194C91.8326 33.9647 90.932 31.7713 90.932 29.1392C90.932 26.5558 91.8326 24.3868 93.6339 22.6321C95.4352 20.8774 97.626 20 100.206 20C102.786 20 104.953 20.8774 106.705 22.6321C108.507 24.3868 109.407 26.5558 109.407 29.1392C109.407 31.7713 108.531 33.9647 106.779 35.7194C105.026 37.4254 102.859 38.2784 100.279 38.2784Z" fill="white"/>
<path d="M343.254 116.632C336.492 116.632 330.319 114.896 324.734 111.424C319.197 107.952 314.763 103.307 311.431 97.4886C308.149 91.621 306.507 85.1423 306.507 78.0523C306.507 72.6737 307.463 67.6618 309.374 63.0166C311.285 58.3226 313.906 54.2153 317.237 50.6947C320.618 47.1253 324.538 44.3382 328.996 42.3334C333.455 40.3287 338.207 39.3263 343.254 39.3263C350.015 39.3263 356.164 41.0621 361.7 44.5338C367.286 48.0054 371.72 52.675 375.003 58.5426C378.334 64.4102 380 70.9134 380 78.0523C380 83.382 379.045 88.3694 377.134 93.0146C375.223 97.6598 372.577 101.767 369.197 105.336C365.865 108.857 361.97 111.62 357.511 113.624C353.102 115.629 348.349 116.632 343.254 116.632ZM343.254 98.7355C346.83 98.7355 350.04 97.782 352.881 95.8751C355.723 93.9681 357.952 91.4499 359.569 88.3205C361.235 85.1912 362.068 81.7684 362.068 78.0523C362.068 74.2384 361.21 70.7667 359.496 67.6374C357.83 64.4591 355.552 61.9409 352.661 60.0828C349.819 58.1759 346.683 57.2224 343.254 57.2224C339.726 57.2224 336.541 58.1759 333.7 60.0828C330.858 61.9898 328.604 64.5324 326.938 67.7107C325.273 70.889 324.44 74.3362 324.44 78.0523C324.44 81.9151 325.297 85.4112 327.012 88.5406C328.727 91.67 331.005 94.1637 333.847 96.0217C336.737 97.8309 339.873 98.7355 343.254 98.7355Z" fill="white"/>
<path d="M190.47 87.5871V39.3263H197.053C203.321 39.3263 208.402 44.4161 208.402 50.6947V82.893C208.402 85.7779 209.112 88.4183 210.533 90.8142C211.954 93.1613 213.84 95.0438 216.192 96.4618C218.593 97.8309 221.214 98.5154 224.056 98.5154C226.995 98.5154 229.641 97.8309 231.993 96.4618C234.345 95.0438 236.231 93.1613 237.652 90.8142C239.073 88.4183 239.783 85.7779 239.783 82.893V39.3263H258.095L258.169 114.725H239.857L239.783 108.05C237.235 110.691 234.222 112.793 230.744 114.358C227.265 115.874 223.541 116.632 219.573 116.632C214.232 116.632 209.357 115.336 204.948 112.744C200.538 110.104 197.011 106.608 194.365 102.256C191.768 97.8553 190.47 92.9657 190.47 87.5871Z" fill="white"/>
<path d="M307.482 68.3708V116.632H300.899C294.631 116.632 289.55 111.542 289.55 105.263V73.0649C289.55 70.18 288.84 67.564 287.419 65.217C285.998 62.8211 284.087 60.9385 281.687 59.5694C279.335 58.1514 276.714 57.4424 273.823 57.4424C270.932 57.4424 268.286 58.1514 265.886 59.5694C263.534 60.9385 261.648 62.8211 260.227 65.217C258.855 67.564 258.169 70.18 258.169 73.0649V116.632H239.857L239.783 39.3263H258.095L258.169 47.9076C260.668 45.2672 263.656 43.1891 267.135 41.6733C270.614 40.1087 274.362 39.3263 278.379 39.3263C283.72 39.3263 288.595 40.6465 293.004 43.2869C297.414 45.8784 300.917 49.3745 303.514 53.7752C306.16 58.127 307.482 62.9922 307.482 68.3708Z" fill="white"/>
</svg>
